# Blender 3.1.0
# www.blender.org
mtllib shuriken.mtl
o SM_Wep_Shuriken_02
v -0.020100 0.009800 -0.020100
v 0.020100 0.009800 -0.020100
v 0.036100 0.009800 -0.036100
v -0.036100 0.009800 -0.036100
v -0.036100 0.009800 0.036100
v -0.020100 0.009800 0.020100
v 0.020100 0.009800 0.020100
v 0.036100 0.009800 0.036100
v 0.020100 -0.009800 -0.020100
v -0.020100 -0.009800 -0.020100
v -0.036100 -0.009800 -0.036100
v 0.036100 -0.009800 -0.036100
v 0.036100 -0.009800 0.036100
v 0.020100 -0.009800 0.020100
v -0.020100 -0.009800 0.020100
v -0.036100 -0.009800 0.036100
v -0.123300 -0.002000 0.002100
v -0.123300 -0.002000 -0.002100
v -0.123300 0.002000 0.002100
v -0.123300 0.002000 -0.002100
v -0.002100 -0.002000 -0.123300
v 0.002100 -0.002000 -0.123300
v 0.002100 0.002000 -0.123300
v -0.002100 0.002000 -0.123300
v 0.123300 -0.002000 0.002100
v 0.123300 -0.002000 -0.002100
v 0.123300 0.002000 0.002100
v 0.123300 0.002000 -0.002100
v -0.002100 -0.002000 0.123300
v 0.002100 -0.002000 0.123300
v 0.002100 0.002000 0.123300
v -0.002100 0.002000 0.123300
vn -0.0000 1.0000 -0.0000
vn -0.0000 0.9996 -0.0297
vn -0.0000 0.9996 0.0297
vn -0.0000 -1.0000 -0.0000
vn -0.0000 -0.9996 -0.0297
vn -0.0000 -0.9996 0.0297
vn -0.7071 -0.0000 0.7071
vn -0.7071 -0.0000 -0.7071
vn -0.0000 -0.0000 -1.0000
vn -0.0000 -0.0000 1.0000
vn 1.0000 -0.0000 -0.0000
vn -0.0891 -0.9960 -0.0000
vn -0.3633 -0.0000 0.9317
vn -0.0891 0.9960 -0.0000
vn -0.3633 -0.0000 -0.9317
vn -1.0000 -0.0000 -0.0000
vn -0.0000 -0.9960 -0.0891
vn 0.9318 -0.0000 -0.3630
vn -0.0000 0.9960 -0.0891
vn -0.9318 -0.0000 -0.3630
vn 0.0891 -0.9960 -0.0000
vn 0.3633 -0.0000 0.9317
vn 0.0891 0.9960 -0.0000
vn 0.3633 -0.0000 -0.9317
vn -0.0000 -0.9960 0.0891
vn 0.9318 -0.0000 0.3630
vn -0.0000 0.9960 0.0891
vn -0.9318 -0.0000 0.3630
vt 0.248400 0.248100
vt 0.622100 0.000000
vt 0.248100 0.345600
vt 0.527800 0.000000
vt 0.209000 0.384500
vt 0.209500 0.209000
vt 0.385000 0.209500
vt 0.345900 0.248400
vt 0.339300 0.000000
vt 0.716300 0.000000
vt 0.345600 0.345900
vt 0.433500 0.000000
vt 0.384500 0.385000
vt 0.756600 0.470200
vt 0.527800 0.045900
vt 0.756200 0.375900
vt 0.622100 0.045900
vt 0.793800 0.338100
vt 0.176500 0.175900
vt 0.794400 0.507700
vt 0.175900 0.417500
vt 0.624800 0.508400
vt 0.417500 0.418100
vt 0.662300 0.470500
vt 0.433500 0.045900
vt 0.662000 0.376300
vt 0.339300 0.045900
vt 0.716300 0.045900
vt 0.624200 0.338700
vt 0.418100 0.176500
vt 0.703300 0.132500
vt 0.309200 0.000000
vt 0.713100 0.132500
vt 0.286000 0.000500
vt 0.302000 0.005100
vt 0.293100 0.005200
vt 1.000000 0.417300
vt 0.000000 0.284800
vt 1.000000 0.427000
vt 0.000500 0.308000
vt 0.005200 0.300900
vt 0.005100 0.292000
vt 0.705500 0.714000
vt 0.308000 0.593500
vt 0.715200 0.713900
vt 0.284800 0.594000
vt 0.300900 0.588700
vt 0.292000 0.588900
vt 0.418600 0.419400
vt 0.593500 0.286000
vt 0.418600 0.429200
vt 0.594000 0.309200
vt 0.588900 0.302000
vt 0.588700 0.293100
s 1
usemtl Default_OBJ
f 1/1/1 2/3/1 3/5/2 4/6/2
f 1/1/1 4/6/2 5/7/3 6/8/1
f 2/3/1 7/11/1 8/13/3 3/5/2
f 6/8/1 5/7/3 8/13/3 7/11/1
f 9/14/4 10/16/4 11/18/5 12/20/5
f 9/14/4 12/20/5 13/22/6 14/24/4
f 10/16/4 15/26/4 16/29/6 11/18/5
f 14/24/4 13/22/6 16/29/6 15/26/4
f 2/4/7 9/15/7 14/25/8 7/12/8
f 14/25/8 15/27/9 6/9/9 7/12/8
f 10/17/10 9/15/7 2/4/7 1/2/10
f 15/28/11 10/17/11 1/2/11 6/10/11
f 16/29/12 17/31/12 18/33/12 11/18/12
f 17/32/13 16/30/13 5/7/13 19/35/13
f 4/6/14 20/36/14 19/35/14 5/7/14
f 11/19/15 18/34/15 20/36/15 4/6/15
s 0
f 17/32/16 19/35/16 20/36/16 18/34/16
f 11/18/17 21/37/17 22/39/17 12/20/17
f 23/41/18 3/5/18 12/21/18 22/40/18
f 24/42/19 4/6/19 3/5/19 23/41/19
f 4/6/20 24/42/20 21/38/20 11/19/20
f 21/38/9 24/42/9 23/41/9 22/40/9
f 25/43/21 13/22/21 12/20/21 26/45/21
f 27/47/22 8/13/22 13/23/22 25/44/22
f 28/48/23 3/5/23 8/13/23 27/47/23
f 26/46/24 12/21/24 3/5/24 28/48/24
f 26/46/11 28/48/11 27/47/11 25/44/11
f 29/49/25 16/29/25 13/22/25 30/51/25
f 8/13/26 31/53/26 30/52/26 13/23/26
f 5/7/27 32/54/27 31/53/27 8/13/27
f 16/30/28 29/50/28 32/54/28 5/7/28
f 30/52/10 31/53/10 32/54/10 29/50/10
