# 3ds Max Wavefront OBJ Exporter v0.99 - (c)2007 guruware
# File Created: 28.06.2022 22:42:51

#
# object Cylinder002
#

v  -150.9755 0.0000 -856.2242
v  -434.7165 0.0000 -752.9509
v  -434.7166 0.0000 -0.0002
v  -150.9757 0.0000 -0.0002
v  434.7162 0.0000 -0.0000
v  434.7164 0.0000 -752.9510
v  150.9754 0.0000 -856.2242
v  150.9752 0.0000 -0.0001
v  869.4329 0.0000 -0.0000
v  816.9996 0.0000 -297.3636
v  666.0242 0.0000 -558.8607
v  666.0240 0.0000 -0.0000
v  -666.0242 0.0000 -558.8607
v  -666.0242 0.0000 -0.0002
v  -666.0244 0.0000 558.8605
v  -434.7167 0.0000 752.9508
v  -150.9758 0.0000 856.2241
v  150.9750 0.0000 856.2242
v  434.7160 0.0000 752.9512
v  666.0239 0.0000 558.8611
v  816.9995 0.0000 297.3641
v  -816.9996 0.0000 -297.3636
v  -869.4329 0.0000 -0.0002
v  -816.9997 0.0000 297.3633
# 24 vertices

vn 0.0000 1.0000 -0.0000
# 1 vertex normals

vt 0.9708 0.0000 0.8794
vt 0.9126 0.0000 0.6527
vt 0.4980 0.0000 -0.1736
vt 0.4993 0.0000 -0.0603
vt 0.5020 0.0000 0.1736
vt 0.9167 0.0000 1.0000
vt 0.9722 0.0000 1.0000
vt 0.5007 0.0000 0.0603
vt 0.7500 0.0000 1.0000
vt 0.8056 0.0000 1.0000
vt 0.8611 0.0000 1.0000
vt 0.6340 0.0000 0.6133
vt 0.8047 0.0000 0.3473
vt 0.4969 0.0000 -0.2660
vt 0.1891 0.0000 -0.8794
vt 0.0833 0.0000 -1.0000
vt 0.0278 0.0000 -1.0000
vt 0.0292 0.0000 -0.8794
vt 0.0874 0.0000 -0.6527
vt 0.1953 0.0000 -0.3473
vt 0.3400 0.0000 -0.0000
vt 0.6600 0.0000 0.0000
vt 0.4960 0.0000 -0.3473
vt 0.3325 0.0000 -0.6527
# 24 texture coords

o Cylinder002
g Cylinder002
s 1
f 1/1/1 2/2/1 3/3/1 4/4/1 
f 5/5/1 6/6/1 7/7/1 8/8/1 
f 7/7/1 1/1/1 4/4/1 8/8/1 
f 9/9/1 10/10/1 11/11/1 12/12/1 
f 2/2/1 13/13/1 14/14/1 3/3/1 
f 15/15/1 16/16/1 3/3/1 14/14/1 
f 3/3/1 16/16/1 17/17/1 4/4/1 
f 4/4/1 17/17/1 18/18/1 8/8/1 
f 8/8/1 18/18/1 19/19/1 5/5/1 
f 20/20/1 21/21/1 9/9/1 12/12/1 
f 11/11/1 6/6/1 5/5/1 12/12/1 
f 12/12/1 5/5/1 19/19/1 20/20/1 
f 13/13/1 22/22/1 23/23/1 14/14/1 
f 14/14/1 23/23/1 24/24/1 15/15/1 
# 14 polygons

