# 3ds Max Wavefront OBJ Exporter v0.99 - (c)2007 guruware
# File Created: 28.06.2022 22:43:13

#
# object Cylinder001
#

v  479.6622 0.0000 -639.4872
v  391.0242 0.0000 -793.0127
v  391.0240 0.0000 967.3456
v  479.6620 0.0000 967.1259
v  -479.6622 0.0000 -639.4872
v  -510.4458 0.0000 -464.9045
v  -510.4459 0.0000 966.8761
v  -479.6622 0.0000 967.1259
v  510.4459 0.0000 -464.9044
v  510.4458 0.0000 966.8761
v  255.2229 0.0000 -906.9635
v  255.2227 0.0000 967.5087
v  88.6380 0.0000 -967.5955
v  88.6378 0.0000 967.5955
v  -88.6380 0.0000 -967.5955
v  -88.6382 0.0000 967.5955
v  -255.2229 0.0000 -906.9635
v  -255.2231 0.0000 967.5087
v  -391.0242 0.0000 -793.0127
v  -391.0243 0.0000 967.3456
# 20 vertices

vn 0.0000 1.0000 -0.0000
# 1 vertex normals

vt 0.3400 0.0000 -0.0000
vt 0.8611 0.0000 1.0000
vt 0.1953 0.0000 -0.3473
vt 0.6600 0.0000 0.0000
vt 0.4960 0.0000 -0.3473
vt 0.3325 0.0000 -0.6527
vt 0.7500 0.0000 1.0000
vt 0.9167 0.0000 1.0000
vt 0.0874 0.0000 -0.6527
vt 0.9722 0.0000 1.0000
vt 0.0292 0.0000 -0.8794
vt 0.9708 0.0000 0.8794
vt 0.0278 0.0000 -1.0000
vt 0.9126 0.0000 0.6527
vt 0.0833 0.0000 -1.0000
vt 0.8047 0.0000 0.3473
vt 0.1891 0.0000 -0.8794
# 17 texture coords

o Cylinder001
g Cylinder001
s 1
f 1/1/1 2/2/1 3/3/1 4/1/1 
s off
f 5/4/1 6/5/1 7/5/1 8/6/1 
f 9/7/1 1/1/1 4/1/1 10/7/1 
s 1
f 2/2/1 11/8/1 12/9/1 3/3/1 
f 11/8/1 13/10/1 14/11/1 12/9/1 
f 13/10/1 15/12/1 16/13/1 14/11/1 
f 15/12/1 17/14/1 18/15/1 16/13/1 
f 17/14/1 19/16/1 20/17/1 18/15/1 
f 19/16/1 5/4/1 8/6/1 20/17/1 
# 9 polygons

