# 3ds Max Wavefront OBJ Exporter v0.99 - (c)2007 guruware
# File Created: 29.06.2022 23:29:53

#
# object Plane001
#

v  -0.4073 0.7252 0.9924
v  -0.5893 0.7268 0.8892
v  -0.4246 0.2896 0.9847
v  -0.2559 0.3502 1.0357
v  -0.2081 0.7253 1.0992
v  -0.4073 0.7253 1.0355
v  -0.2559 0.3503 1.0740
v  -0.1455 0.2890 1.1103
v  0.0000 0.2627 1.1208
v  0.0000 0.7270 1.1208
v  0.2081 0.7253 1.0992
v  0.1455 0.2890 1.1103
v  0.2559 0.3503 1.0740
v  0.4073 0.7253 1.0355
v  0.4246 0.2896 0.9847
v  0.5893 0.7268 0.8892
v  0.4073 0.7252 0.9924
v  0.2559 0.3502 1.0357
v  -0.4115 1.5160 0.9906
v  -0.6394 1.6691 0.8512
v  -0.6220 1.1705 0.8650
v  -0.4529 1.3621 0.9813
v  -0.1971 1.5508 1.0583
v  -0.2213 1.3008 1.0532
v  -0.2213 1.3009 1.0964
v  -0.4529 1.3623 1.0265
v  0.0000 1.3962 1.0776
v  0.0000 1.6748 1.0776
v  0.0000 1.3964 1.1208
v  0.1971 1.5508 1.0583
v  0.2213 1.3008 1.0532
v  0.2213 1.3009 1.0964
v  0.4529 1.3621 0.9813
v  0.4115 1.5160 0.9906
v  0.4529 1.3623 1.0265
v  0.6220 1.1705 0.8650
v  0.6394 1.6691 0.8512
v  -0.0738 0.0312 1.0750
v  -0.1455 0.2889 1.0672
v  0.0000 0.2625 1.0776
v  0.0000 0.0316 1.0776
v  0.1455 0.2889 1.0672
v  0.0738 0.0312 1.0750
v  -0.4045 0.2915 0.9354
v  -0.5628 0.7267 0.8431
v  -0.3860 0.7251 0.9436
v  -0.2417 0.3530 0.9906
v  -0.1973 0.7250 1.0040
v  -0.1377 0.2891 1.0145
v  -0.0000 0.7268 1.0244
v  -0.0001 0.2621 1.0244
v  0.1973 0.7250 1.0040
v  0.1378 0.2891 1.0145
v  0.3860 0.7251 0.9436
v  0.2417 0.3530 0.9906
v  0.5628 0.7267 0.8431
v  0.4045 0.2915 0.9354
v  -0.5942 1.1701 0.8196
v  -0.6118 1.6688 0.8057
v  -0.3891 1.5161 0.9423
v  -0.4292 1.3618 0.9308
v  -0.1874 1.5509 1.0060
v  -0.2097 1.3007 1.0013
v  0.0000 1.6748 1.0244
v  0.0000 1.2680 1.0244
v  0.1874 1.5509 1.0060
v  0.2097 1.3007 1.0013
v  0.3891 1.5161 0.9423
v  0.4292 1.3618 0.9308
v  0.6118 1.6688 0.8057
v  0.5942 1.1701 0.8196
v  -0.0681 0.0322 1.0220
v  -0.0003 0.0312 1.0244
v  0.0685 0.0315 1.0220
v  0.4073 0.7252 -0.9924
v  0.5893 0.7268 -0.8892
v  0.4246 0.2896 -0.9847
v  0.2559 0.3502 -1.0357
v  0.2081 0.7253 -1.0992
v  0.4073 0.7253 -1.0355
v  0.2559 0.3503 -1.0740
v  0.1455 0.2890 -1.1103
v  -0.0000 0.2627 -1.1208
v  -0.0000 0.7270 -1.1208
v  -0.2081 0.7253 -1.0992
v  -0.1455 0.2890 -1.1103
v  -0.2559 0.3503 -1.0740
v  -0.4073 0.7253 -1.0355
v  -0.4246 0.2896 -0.9847
v  -0.5893 0.7268 -0.8892
v  -0.4073 0.7252 -0.9924
v  -0.2559 0.3502 -1.0357
v  0.4115 1.5160 -0.9906
v  0.6394 1.6691 -0.8512
v  0.6220 1.1705 -0.8650
v  0.4529 1.3621 -0.9813
v  0.1971 1.5508 -1.0583
v  0.2213 1.3008 -1.0532
v  0.2213 1.3009 -1.0964
v  0.4529 1.3623 -1.0265
v  -0.0000 1.3962 -1.0776
v  -0.0000 1.6748 -1.0776
v  -0.0000 1.3964 -1.1208
v  -0.1971 1.5508 -1.0583
v  -0.2213 1.3008 -1.0532
v  -0.2213 1.3009 -1.0964
v  -0.4529 1.3621 -0.9813
v  -0.4115 1.5160 -0.9906
v  -0.4529 1.3623 -1.0265
v  -0.6220 1.1705 -0.8650
v  -0.6394 1.6691 -0.8512
v  0.0738 0.0312 -1.0750
v  0.1455 0.2889 -1.0672
v  -0.0000 0.2625 -1.0776
v  -0.0000 0.0316 -1.0776
v  -0.1455 0.2889 -1.0672
v  -0.0738 0.0312 -1.0750
v  0.4045 0.2915 -0.9354
v  0.5628 0.7267 -0.8431
v  0.3860 0.7251 -0.9436
v  0.2417 0.3530 -0.9906
v  0.1973 0.7250 -1.0040
v  0.1377 0.2891 -1.0145
v  -0.0000 0.7268 -1.0244
v  0.0001 0.2621 -1.0244
v  -0.1973 0.7250 -1.0040
v  -0.1378 0.2891 -1.0145
v  -0.3860 0.7251 -0.9436
v  -0.2417 0.3530 -0.9906
v  -0.5628 0.7267 -0.8431
v  -0.4045 0.2915 -0.9354
v  0.5942 1.1701 -0.8196
v  0.6118 1.6688 -0.8057
v  0.3891 1.5161 -0.9423
v  0.4292 1.3618 -0.9308
v  0.1874 1.5509 -1.0060
v  0.2097 1.3007 -1.0013
v  -0.0000 1.6748 -1.0244
v  -0.0000 1.2680 -1.0244
v  -0.1874 1.5509 -1.0060
v  -0.2097 1.3007 -1.0013
v  -0.3891 1.5161 -0.9423
v  -0.4292 1.3618 -0.9308
v  -0.6118 1.6688 -0.8057
v  -0.5942 1.1701 -0.8196
v  0.0681 0.0322 -1.0220
v  0.0003 0.0312 -1.0244
v  -0.0685 0.0315 -1.0220
# 148 vertices

vn -0.8293 -0.1583 0.5359
vn -0.9564 -0.1787 0.2309
vn -0.7758 -0.4626 0.4291
vn -0.6253 -0.3492 0.6979
vn -0.2087 -0.0029 0.9780
vn -0.8164 -0.1604 0.5547
vn -0.6895 -0.5056 0.5186
vn -0.3282 -0.6615 0.6743
vn 0.0000 -0.7273 0.6863
vn -0.0000 -0.0000 1.0000
vn 0.2087 -0.0029 0.9780
vn 0.3282 -0.6615 0.6743
vn 0.6895 -0.5056 0.5186
vn 0.8164 -0.1604 0.5547
vn 0.7758 -0.4626 0.4291
vn 0.9564 -0.1787 0.2309
vn 0.8293 -0.1583 0.5359
vn 0.6253 -0.3492 0.6979
vn -0.2132 0.6002 0.7709
vn -0.6555 0.7144 0.2447
vn -0.9786 -0.0447 0.2009
vn -0.6609 0.2533 0.7065
vn -0.3531 0.5911 0.7252
vn -0.1578 0.7844 0.5999
vn -0.2274 0.5858 0.7779
vn -0.5812 0.6626 0.4724
vn 0.0000 0.6172 0.7868
vn -0.0000 0.7812 0.6242
vn 0.0000 0.7598 0.6502
vn 0.3531 0.5911 0.7252
vn 0.1578 0.7844 0.5999
vn 0.2274 0.5858 0.7779
vn 0.6609 0.2533 0.7065
vn 0.2132 0.6002 0.7709
vn 0.5812 0.6626 0.4724
vn 0.9786 -0.0447 0.2009
vn 0.6557 0.7143 0.2447
vn -0.2919 -0.7175 0.6325
vn -0.3865 -0.6354 0.6685
vn 0.0000 -0.6780 0.7351
vn -0.0000 -0.6955 0.7185
vn 0.3865 -0.6354 0.6685
vn 0.2909 -0.7134 0.6376
vn -0.3428 -0.4702 -0.8132
vn -0.2893 -0.1827 -0.9397
vn 0.4110 0.0295 -0.9111
vn 0.2583 0.0199 -0.9659
vn 0.2086 0.0027 -0.9780
vn 0.1592 0.0093 -0.9872
vn -0.0000 -0.0000 -1.0000
vn -0.2086 0.0027 -0.9780
vn -0.1591 0.0092 -0.9872
vn -0.4110 0.0295 -0.9111
vn -0.2583 0.0199 -0.9659
vn 0.2893 -0.1827 -0.9397
vn 0.3430 -0.4696 -0.8135
vn -0.2168 -0.0510 -0.9749
vn -0.0785 0.7102 -0.6996
vn 0.4163 0.6132 -0.6714
vn 0.4849 -0.0449 -0.8734
vn -0.1162 0.6322 -0.7660
vn 0.2122 0.0004 -0.9772
vn -0.0000 0.8139 -0.5810
vn -0.0000 0.0000 -1.0000
vn 0.1162 0.6322 -0.7660
vn -0.2122 0.0004 -0.9772
vn -0.4163 0.6132 -0.6714
vn -0.4849 -0.0449 -0.8734
vn 0.0786 0.7102 -0.6996
vn 0.2167 -0.0510 -0.9749
vn -0.1910 -0.7357 -0.6499
vn -0.0037 -0.7195 -0.6945
vn 0.1911 -0.7415 -0.6432
vn 0.8293 -0.1583 -0.5359
vn 0.9564 -0.1787 -0.2309
vn 0.7758 -0.4626 -0.4291
vn 0.6253 -0.3492 -0.6979
vn 0.2087 -0.0029 -0.9780
vn 0.8164 -0.1604 -0.5547
vn 0.6895 -0.5056 -0.5186
vn 0.3282 -0.6615 -0.6743
vn 0.0000 -0.7273 -0.6863
vn -0.2087 -0.0029 -0.9780
vn -0.3282 -0.6615 -0.6743
vn -0.6895 -0.5056 -0.5186
vn -0.8164 -0.1604 -0.5547
vn -0.7758 -0.4626 -0.4291
vn -0.9564 -0.1787 -0.2309
vn -0.8293 -0.1583 -0.5359
vn -0.6253 -0.3492 -0.6979
vn 0.2132 0.6002 -0.7709
vn 0.6555 0.7144 -0.2447
vn 0.9786 -0.0447 -0.2009
vn 0.6609 0.2533 -0.7065
vn 0.3531 0.5911 -0.7252
vn 0.1578 0.7844 -0.5999
vn 0.2274 0.5858 -0.7779
vn 0.5812 0.6626 -0.4724
vn -0.0000 0.6172 -0.7868
vn 0.0000 0.7812 -0.6243
vn -0.0000 0.7598 -0.6502
vn -0.3531 0.5911 -0.7252
vn -0.1578 0.7844 -0.5999
vn -0.2274 0.5858 -0.7779
vn -0.6609 0.2533 -0.7065
vn -0.2132 0.6002 -0.7709
vn -0.5812 0.6626 -0.4724
vn -0.9786 -0.0447 -0.2009
vn -0.6557 0.7143 -0.2447
vn 0.2919 -0.7175 -0.6325
vn 0.3865 -0.6354 -0.6685
vn 0.0000 -0.6780 -0.7351
vn 0.0000 -0.6955 -0.7185
vn -0.3865 -0.6354 -0.6685
vn -0.2909 -0.7134 -0.6376
vn 0.3428 -0.4702 0.8132
vn 0.2893 -0.1827 0.9397
vn -0.4110 0.0295 0.9111
vn -0.2583 0.0199 0.9659
vn -0.2086 0.0027 0.9780
vn -0.1592 0.0093 0.9872
vn 0.0000 -0.0000 1.0000
vn 0.2086 0.0027 0.9780
vn 0.1591 0.0092 0.9872
vn 0.4110 0.0295 0.9111
vn 0.2583 0.0199 0.9659
vn -0.2893 -0.1827 0.9397
vn -0.3430 -0.4696 0.8135
vn 0.2168 -0.0510 0.9749
vn 0.0785 0.7102 0.6996
vn -0.4163 0.6132 0.6714
vn -0.4849 -0.0449 0.8734
vn 0.1162 0.6322 0.7660
vn -0.2122 0.0004 0.9772
vn -0.0000 0.8139 0.5810
vn 0.0000 0.0000 1.0000
vn -0.1162 0.6322 0.7660
vn 0.2122 0.0004 0.9772
vn 0.4163 0.6132 0.6713
vn 0.4849 -0.0449 0.8734
vn -0.0785 0.7102 0.6996
vn -0.2167 -0.0510 0.9749
vn 0.1910 -0.7357 0.6499
vn 0.0037 -0.7195 0.6945
vn -0.1911 -0.7415 0.6432
# 145 vertex normals

vt 0.1132 0.2659 0.0000
vt 0.0401 0.2677 0.0000
vt 0.1030 0.1117 0.0000
vt 0.1657 0.1328 0.0000
vt 0.5770 0.7141 0.0000
vt 0.5037 0.7138 0.0000
vt 0.5585 0.5811 0.0000
vt 0.5997 0.5611 0.0000
vt 0.6506 0.5521 0.0000
vt 0.6504 0.7150 0.0000
vt 0.7239 0.7143 0.0000
vt 0.7015 0.5610 0.0000
vt 0.7426 0.5813 0.0000
vt 0.7971 0.7141 0.0000
vt 0.4104 0.1058 0.0000
vt 0.4778 0.2594 0.0000
vt 0.4046 0.2605 0.0000
vt 0.3486 0.1289 0.0000
vt 0.1144 0.5451 0.0000
vt 0.0188 0.5976 0.0000
vt 0.0272 0.4234 0.0000
vt 0.1002 0.4905 0.0000
vt 0.1951 0.5560 0.0000
vt 0.1857 0.4676 0.0000
vt 0.5711 0.9177 0.0000
vt 0.4848 0.9373 0.0000
vt 0.2645 0.5009 0.0000
vt 0.2662 0.5980 0.0000
vt 0.6502 0.9479 0.0000
vt 0.3359 0.5538 0.0000
vt 0.3420 0.4653 0.0000
vt 0.7294 0.9179 0.0000
vt 0.4282 0.4844 0.0000
vt 0.4162 0.5395 0.0000
vt 0.8157 0.9376 0.0000
vt 0.4980 0.4142 0.0000
vt 0.5140 0.5878 0.0000
vt 0.2308 0.0207 0.0000
vt 0.2058 0.1109 0.0000
vt 0.2568 0.0998 0.0000
vt 0.2548 0.0187 0.0000
vt 0.3079 0.1081 0.0000
vt 0.2792 0.0186 0.0000
vt 0.9118 0.0910 0.0000
vt 0.9770 0.2440 0.0000
vt 0.9054 0.2437 0.0000
vt 0.8514 0.1130 0.0000
vt 0.8356 0.2439 0.0000
vt 0.8138 0.0906 0.0000
vt 0.7658 0.2448 0.0000
vt 0.7652 0.0813 0.0000
vt 0.6960 0.2444 0.0000
vt 0.7166 0.0910 0.0000
vt 0.6262 0.2447 0.0000
vt 0.6792 0.1136 0.0000
vt 0.5546 0.2455 0.0000
vt 0.6186 0.0921 0.0000
vt 0.9916 0.3999 0.0000
vt 1.0000 0.5754 0.0000
vt 0.9079 0.5220 0.0000
vt 0.9218 0.4675 0.0000
vt 0.8333 0.5347 0.0000
vt 0.8407 0.4465 0.0000
vt 0.7670 0.5786 0.0000
vt 0.7665 0.4353 0.0000
vt 0.7005 0.5352 0.0000
vt 0.6924 0.4470 0.0000
vt 0.6257 0.5230 0.0000
vt 0.6115 0.4687 0.0000
vt 0.5340 0.5771 0.0000
vt 0.5412 0.4016 0.0000
vt 0.7889 0.0002 0.0000
vt 0.7650 0.0000 0.0000
vt 0.7407 0.0002 0.0000
vt 0.0220 0.2633 0.0000
vt 0.0850 0.1063 0.0000
vt 0.4283 0.0998 0.0000
vt 0.4958 0.2545 0.0000
vt 0.1185 0.5637 0.0000
vt 0.0277 0.6141 0.0000
vt 0.0000 0.5967 0.0000
vt 0.0084 0.4221 0.0000
vt 0.1886 0.5735 0.0000
vt 0.2556 0.6132 0.0000
vt 0.3431 0.5713 0.0000
vt 0.2773 0.6131 0.0000
vt 0.4128 0.5581 0.0000
vt 0.5167 0.4121 0.0000
vt 0.5327 0.5861 0.0000
vt 0.5060 0.6045 0.0000
vt 0.0935 0.0952 0.0000
vt 0.2211 0.0055 0.0000
vt 0.2540 -0.0000 0.0000
vt 0.2883 0.0035 0.0000
vt 0.4192 0.0892 0.0000
vt 0.4888 0.7114 0.0000
vt 0.5456 0.5772 0.0000
vt 0.5500 0.5701 0.0000
vt 0.5931 0.5478 0.0000
vt 0.6505 0.5373 0.0000
vt 0.7081 0.5480 0.0000
vt 0.7514 0.5710 0.0000
vt 0.7556 0.5773 0.0000
vt 0.8121 0.7117 0.0000
vt 0.8316 0.9364 0.0000
vt 0.8169 0.9533 0.0000
vt 0.7328 0.9331 0.0000
vt 0.6501 0.9619 0.0000
vt 0.5676 0.9326 0.0000
vt 0.4839 0.9532 0.0000
vt 0.4688 0.9361 0.0000
# 111 texture coords

o Plane001
g Plane001
s 1
f 1/1/1 2/2/2 3/3/3 4/4/4 
f 5/5/5 6/6/6 7/7/7 8/8/8 
f 9/9/9 10/10/10 5/5/5 8/8/8 
f 11/11/11 10/10/10 9/9/9 12/12/12 
f 13/13/13 14/14/14 11/11/11 12/12/12 
f 15/15/15 16/16/16 17/17/17 18/18/18 
f 19/19/19 20/20/20 21/21/21 22/22/22 
f 22/22/22 21/21/21 2/2/2 1/1/1 
f 23/23/23 19/19/19 22/22/22 24/24/24 
f 25/25/25 26/26/26 6/6/6 5/5/5 
f 27/27/27 28/28/28 23/23/23 24/24/24 
f 10/10/10 29/29/29 25/25/25 5/5/5 
f 30/30/30 28/28/28 27/27/27 31/31/31 
f 32/32/32 29/29/29 10/10/10 11/11/11 
f 33/33/33 34/34/34 30/30/30 31/31/31 
f 14/14/14 35/35/35 32/32/32 11/11/11 
f 36/36/36 37/37/37 34/34/34 33/33/33 
f 16/16/16 36/36/36 33/33/33 17/17/17 
f 4/4/4 3/3/3 38/38/38 39/39/39 
f 40/40/40 39/39/39 38/38/38 41/41/41 
f 42/42/42 40/40/40 41/41/41 43/43/43 
f 18/18/18 42/42/42 43/43/43 15/15/15 
f 44/44/44 45/45/45 46/46/46 47/47/47 
f 47/47/47 46/46/46 48/48/48 49/49/49 
f 48/48/48 50/50/50 51/51/50 49/49/49 
f 51/51/50 50/50/50 52/52/51 53/53/52 
f 52/52/51 54/54/53 55/55/54 53/53/52 
f 54/54/53 56/56/55 57/57/56 55/55/54 
f 58/58/57 59/59/58 60/60/59 61/61/60 
f 45/45/45 58/58/57 61/61/60 46/46/46 
f 61/61/60 60/60/59 62/62/61 63/63/62 
f 46/46/46 61/61/60 63/63/62 48/48/48 
f 62/62/61 64/64/63 65/65/64 63/63/62 
f 63/63/62 65/65/64 50/50/50 48/48/48 
f 65/65/64 64/64/63 66/66/65 67/67/66 
f 50/50/50 65/65/64 67/67/66 52/52/51 
f 66/66/65 68/68/67 69/69/68 67/67/66 
f 67/67/66 69/69/68 54/54/53 52/52/51 
f 68/68/67 70/70/69 71/71/70 69/69/68 
f 69/69/68 71/71/70 56/56/55 54/54/53 
f 72/72/71 44/44/44 47/47/47 49/49/49 
f 72/72/71 49/49/49 51/51/50 73/73/72 
f 73/73/72 51/51/50 53/53/52 74/74/73 
f 74/74/73 53/53/52 55/55/54 57/57/56 
s 2
f 3/3/3 2/2/2 45/75/45 44/76/44 
f 16/16/16 15/15/15 57/77/56 56/78/55 
s 4
f 20/20/20 19/19/19 60/79/59 59/80/58 
s 2
f 21/21/21 20/20/20 59/81/58 58/82/57 
f 2/2/2 21/21/21 58/82/57 45/75/45 
s 4
f 19/19/19 23/23/23 62/83/61 60/79/59 
f 23/23/23 28/28/28 64/84/63 62/83/61 
s 8
f 28/28/28 30/30/30 66/85/65 64/86/63 
f 30/30/30 34/34/34 68/87/67 66/85/65 
s 2
f 37/37/37 36/36/36 71/88/70 70/89/69 
s 8
f 34/34/34 37/37/37 70/90/69 68/87/67 
s 2
f 36/36/36 16/16/16 56/78/55 71/88/70 
f 38/38/38 3/3/3 44/91/44 72/92/71 
f 41/41/41 38/38/38 72/92/71 73/93/72 
f 43/43/43 41/41/41 73/93/72 74/94/73 
f 15/15/15 43/43/43 74/94/73 57/95/56 
f 1/96/1 4/97/4 7/7/7 6/6/6 
f 4/98/4 39/99/39 8/8/8 7/7/7 
f 39/99/39 40/100/40 9/9/9 8/8/8 
f 40/100/40 42/101/42 12/12/12 9/9/9 
f 42/101/42 18/102/18 13/13/13 12/12/12 
f 18/103/18 17/104/17 14/14/14 13/13/13 
f 17/104/17 33/105/33 35/35/35 14/14/14 
s 4
f 33/106/33 31/107/31 32/32/32 35/35/35 
f 31/107/31 27/108/27 29/29/29 32/32/32 
s 8
f 27/108/27 24/109/24 25/25/25 29/29/29 
f 24/109/24 22/110/22 26/26/26 25/25/25 
s 2
f 22/111/22 1/96/1 6/6/6 26/26/26 
s 1
f 75/1/74 76/2/75 77/3/76 78/4/77 
f 79/5/78 80/6/79 81/7/80 82/8/81 
f 83/9/82 84/10/64 79/5/78 82/8/81 
f 85/11/83 84/10/64 83/9/82 86/12/84 
f 87/13/85 88/14/86 85/11/83 86/12/84 
f 89/15/87 90/16/88 91/17/89 92/18/90 
f 93/19/91 94/20/92 95/21/93 96/22/94 
f 96/22/94 95/21/93 76/2/75 75/1/74 
f 97/23/95 93/19/91 96/22/94 98/24/96 
f 99/25/97 100/26/98 80/6/79 79/5/78 
f 101/27/99 102/28/100 97/23/95 98/24/96 
f 84/10/64 103/29/101 99/25/97 79/5/78 
f 104/30/102 102/28/100 101/27/99 105/31/103 
f 106/32/104 103/29/101 84/10/64 85/11/83 
f 107/33/105 108/34/106 104/30/102 105/31/103 
f 88/14/86 109/35/107 106/32/104 85/11/83 
f 110/36/108 111/37/109 108/34/106 107/33/105 
f 90/16/88 110/36/108 107/33/105 91/17/89 
f 78/4/77 77/3/76 112/38/110 113/39/111 
f 114/40/112 113/39/111 112/38/110 115/41/113 
f 116/42/114 114/40/112 115/41/113 117/43/115 
f 92/18/90 116/42/114 117/43/115 89/15/87 
f 118/44/116 119/45/117 120/46/118 121/47/119 
f 121/47/119 120/46/118 122/48/120 123/49/121 
f 122/48/120 124/50/122 125/51/122 123/49/121 
f 125/51/122 124/50/122 126/52/123 127/53/124 
f 126/52/123 128/54/125 129/55/126 127/53/124 
f 128/54/125 130/56/127 131/57/128 129/55/126 
f 132/58/129 133/59/130 134/60/131 135/61/132 
f 119/45/117 132/58/129 135/61/132 120/46/118 
f 135/61/132 134/60/131 136/62/133 137/63/134 
f 120/46/118 135/61/132 137/63/134 122/48/120 
f 136/62/133 138/64/135 139/65/136 137/63/134 
f 137/63/134 139/65/136 124/50/122 122/48/120 
f 139/65/136 138/64/135 140/66/137 141/67/138 
f 124/50/122 139/65/136 141/67/138 126/52/123 
f 140/66/137 142/68/139 143/69/140 141/67/138 
f 141/67/138 143/69/140 128/54/125 126/52/123 
f 142/68/139 144/70/141 145/71/142 143/69/140 
f 143/69/140 145/71/142 130/56/127 128/54/125 
f 146/72/143 118/44/116 121/47/119 123/49/121 
f 146/72/143 123/49/121 125/51/122 147/73/144 
f 147/73/144 125/51/122 127/53/124 148/74/145 
f 148/74/145 127/53/124 129/55/126 131/57/128 
s 2
f 77/3/76 76/2/75 119/75/117 118/76/116 
f 90/16/88 89/15/87 131/77/128 130/78/127 
s 4
f 94/20/92 93/19/91 134/79/131 133/80/130 
s 2
f 95/21/93 94/20/92 133/81/130 132/82/129 
f 76/2/75 95/21/93 132/82/129 119/75/117 
s 4
f 93/19/91 97/23/95 136/83/133 134/79/131 
f 97/23/95 102/28/100 138/84/135 136/83/133 
s 8
f 102/28/100 104/30/102 140/85/137 138/86/135 
f 104/30/102 108/34/106 142/87/139 140/85/137 
s 2
f 111/37/109 110/36/108 145/88/142 144/89/141 
s 8
f 108/34/106 111/37/109 144/90/141 142/87/139 
s 2
f 110/36/108 90/16/88 130/78/127 145/88/142 
f 112/38/110 77/3/76 118/91/116 146/92/143 
f 115/41/113 112/38/110 146/92/143 147/93/144 
f 117/43/115 115/41/113 147/93/144 148/94/145 
f 89/15/87 117/43/115 148/94/145 131/95/128 
f 75/96/74 78/97/77 81/7/80 80/6/79 
f 78/98/77 113/99/111 82/8/81 81/7/80 
f 113/99/111 114/100/112 83/9/82 82/8/81 
f 114/100/112 116/101/114 86/12/84 83/9/82 
f 116/101/114 92/102/90 87/13/85 86/12/84 
f 92/103/90 91/104/89 88/14/86 87/13/85 
f 91/104/89 107/105/105 109/35/107 88/14/86 
s 4
f 107/106/105 105/107/103 106/32/104 109/35/107 
f 105/107/103 101/108/99 103/29/101 106/32/104 
s 8
f 101/108/99 98/109/96 99/25/97 103/29/101 
f 98/109/96 96/110/94 100/26/98 99/25/97 
s 2
f 96/111/94 75/96/74 80/6/79 100/26/98 
# 144 polygons

